<?xml version="1.0" encoding="us-ascii" standalone="no"?><svg xmlns="http://www.w3.org/2000/svg" xmlns:xlink="http://www.w3.org/1999/xlink" contentStyleType="text/css" height="911px" preserveAspectRatio="none" style="width:663px;height:911px;background:#F5F5F5;" version="1.1" viewBox="0 0 663 911" width="663px" zoomAndPan="magnify"><defs><linearGradient id="gcrk8xgu28s4i0" x1="50%" x2="50%" y1="0%" y2="100%"><stop offset="0%" stop-color="#E0E5F0"/><stop offset="100%" stop-color="#D1D9E6"/></linearGradient></defs><g><rect fill="#F5F5F5" height="911" style="stroke:none;stroke-width:1.0;" width="663" x="0" y="0"/><text fill="#000000" font-family="Arial" font-size="14" font-weight="bold" lengthAdjust="spacing" textLength="351" x="157" y="28.1318">Liste und zugeh&#246;rige Ressourcen abrufen ($read)</text><rect fill="#156082" fill-opacity="0.50196" height="671.2646" style="stroke:#181818;stroke-width:1.0;" width="10" x="59" y="149.146"/><rect fill="#E97232" fill-opacity="0.74118" height="656.2646" style="stroke:#181818;stroke-width:1.0;" width="10" x="283" y="149.146"/><rect fill="#0F9ED5" fill-opacity="0.14510" height="607.3159" rx="5" ry="5" style="stroke:#111827;stroke-width:2.0;" width="646" x="10" y="206.0947"/><rect fill="#0F9ED5" fill-opacity="0.14510" height="428.2251" rx="5" ry="5" style="stroke:#111827;stroke-width:2.0;" width="527" x="20" y="274.2407"/><rect fill="#0F9ED5" fill-opacity="0.14510" height="167.0396" rx="5" ry="5" style="stroke:#111827;stroke-width:2.0;" width="507" x="30" y="414.2329"/><path d="M30,477.3276 L537,477.3276 L537,576.2725 A5,5 0 0 1 532,581.2725 L35,581.2725 A5,5 0 0 1 30,576.2725 L30,477.3276 " fill="#E97132" fill-opacity="0.20784" style="stroke:none;stroke-width:1.0;"/><path d="M20,588.2725 L547,588.2725 L547,697.4658 A5,5 0 0 1 542,702.4658 L25,702.4658 A5,5 0 0 1 20,697.4658 L20,588.2725 " fill="#E97132" fill-opacity="0.20784" style="stroke:none;stroke-width:1.0;"/><path d="M10,709.4658 L656,709.4658 L656,808.4106 A5,5 0 0 1 651,813.4106 L15,813.4106 A5,5 0 0 1 10,808.4106 L10,709.4658 " fill="#E97132" fill-opacity="0.20784" style="stroke:none;stroke-width:1.0;"/><line style="stroke:#181818;stroke-width:0.5;stroke-dasharray:5.0,5.0;" x1="64" x2="64" y1="118.1973" y2="830.4106"/><line style="stroke:#181818;stroke-width:0.5;stroke-dasharray:5.0,5.0;" x1="287.5" x2="287.5" y1="118.1973" y2="830.4106"/><text fill="#000000" font-family="Arial" font-size="14" lengthAdjust="spacing" textLength="42" x="40" y="115.2305">GDA 1</text><ellipse cx="64" cy="50.5986" fill="#156082" fill-opacity="0.50196" rx="8" ry="8" style="stroke:#181818;stroke-width:0.5;"/><path d="M64,58.5986 L64,85.5986 M51,66.5986 L77,66.5986 M64,85.5986 L51,100.5986 M64,85.5986 L77,100.5986 " fill="none" style="stroke:#181818;stroke-width:0.5;"/><text fill="#000000" font-family="Arial" font-size="14" lengthAdjust="spacing" textLength="42" x="40" y="842.5425">GDA 1</text><ellipse cx="64" cy="854.0093" fill="#156082" fill-opacity="0.50196" rx="8" ry="8" style="stroke:#181818;stroke-width:0.5;"/><path d="M64,862.0093 L64,889.0093 M51,870.0093 L77,870.0093 M64,889.0093 L51,904.0093 M64,889.0093 L77,904.0093 " fill="none" style="stroke:#181818;stroke-width:0.5;"/><rect fill="#E97232" fill-opacity="0.74118" height="30.0986" rx="5" ry="5" style="stroke:#555555;stroke-width:0.5;" width="119" x="228.5" y="87.0986"/><text fill="#000000" font-family="Arial" font-size="14" lengthAdjust="spacing" textLength="105" x="235.5" y="107.2305">Fachanwendung</text><rect fill="#E97232" fill-opacity="0.74118" height="30.0986" rx="5" ry="5" style="stroke:#555555;stroke-width:0.5;" width="119" x="228.5" y="829.4106"/><text fill="#000000" font-family="Arial" font-size="14" lengthAdjust="spacing" textLength="105" x="235.5" y="849.5425">Fachanwendung</text><rect fill="#156082" fill-opacity="0.50196" height="671.2646" style="stroke:#181818;stroke-width:1.0;" width="10" x="59" y="149.146"/><rect fill="#E97232" fill-opacity="0.74118" height="656.2646" style="stroke:#181818;stroke-width:1.0;" width="10" x="283" y="149.146"/><polygon fill="#111827" points="271,145.146,281,149.146,271,153.146,275,149.146" style="stroke:#111827;stroke-width:1.0;"/><line style="stroke:#111827;stroke-width:1.0;" x1="69" x2="277" y1="149.146" y2="149.146"/><text fill="#000000" font-family="Arial" font-size="13" font-weight="bold" lengthAdjust="spacing" textLength="7" x="76" y="144.3911">1</text><text fill="#000000" font-family="Arial" font-size="13" lengthAdjust="spacing" textLength="75" x="87" y="144.3911">POST /$read</text><line style="stroke:#111827;stroke-width:1.0;" x1="293" x2="335" y1="178.0947" y2="178.0947"/><line style="stroke:#111827;stroke-width:1.0;" x1="335" x2="335" y1="178.0947" y2="191.0947"/><line style="stroke:#111827;stroke-width:1.0;" x1="294" x2="335" y1="191.0947" y2="191.0947"/><polygon fill="#111827" points="304,187.0947,294,191.0947,304,195.0947,300,191.0947" style="stroke:#111827;stroke-width:1.0;"/><text fill="#000000" font-family="Arial" font-size="13" font-weight="bold" lengthAdjust="spacing" textLength="7" x="300" y="173.3398">2</text><text fill="#000000" font-family="Arial" font-size="13" lengthAdjust="spacing" textLength="138" x="311" y="173.3398">Pr&#252;fen, ob Liste besteht</text><path d="M15,206.0947 L208,206.0947 L208,214.1934 L198,224.1934 L10,224.1934 L10,211.0947 A5,5 0 0 1 15,206.0947 " fill="#EEF2FF" style="stroke:#111827;stroke-width:1.5;"/><rect fill="none" height="607.3159" rx="5" ry="5" style="stroke:#111827;stroke-width:2.0;" width="646" x="10" y="206.0947"/><text fill="#000000" font-family="Arial" font-size="14" font-weight="bold" lengthAdjust="spacing" textLength="149" x="25" y="220.2266">alt: Liste vorhanden?</text><text fill="#000000" font-family="Arial" font-size="14" font-weight="bold" lengthAdjust="spacing" textLength="125" x="223" y="221.2266">[Liste vorhanden]</text><line style="stroke:#111827;stroke-width:1.0;" x1="293" x2="335" y1="246.2407" y2="246.2407"/><line style="stroke:#111827;stroke-width:1.0;" x1="335" x2="335" y1="246.2407" y2="259.2407"/><line style="stroke:#111827;stroke-width:1.0;" x1="294" x2="335" y1="259.2407" y2="259.2407"/><polygon fill="#111827" points="304,255.2407,294,259.2407,304,263.2407,300,259.2407" style="stroke:#111827;stroke-width:1.0;"/><text fill="#000000" font-family="Arial" font-size="13" font-weight="bold" lengthAdjust="spacing" textLength="7" x="300" y="241.4858">3</text><text fill="#000000" font-family="Arial" font-size="13" lengthAdjust="spacing" textLength="248" x="311" y="241.4858">Pr&#252;fen, ob List.emptyReason vorhanden ist</text><path d="M25,274.2407 L308,274.2407 L308,282.3394 L298,292.3394 L20,292.3394 L20,279.2407 A5,5 0 0 1 25,274.2407 " fill="#EEF2FF" style="stroke:#111827;stroke-width:1.5;"/><rect fill="none" height="428.2251" rx="5" ry="5" style="stroke:#111827;stroke-width:2.0;" width="527" x="20" y="274.2407"/><text fill="#000000" font-family="Arial" font-size="14" font-weight="bold" lengthAdjust="spacing" textLength="239" x="35" y="288.3726">alt: List.emptyReason vorhanden?</text><text fill="#000000" font-family="Arial" font-size="14" font-weight="bold" lengthAdjust="spacing" textLength="41" x="323" y="289.3726">[nein]</text><line style="stroke:#111827;stroke-width:1.0;" x1="293" x2="335" y1="344.2842" y2="344.2842"/><line style="stroke:#111827;stroke-width:1.0;" x1="335" x2="335" y1="344.2842" y2="357.2842"/><line style="stroke:#111827;stroke-width:1.0;" x1="294" x2="335" y1="357.2842" y2="357.2842"/><polygon fill="#111827" points="304,353.2842,294,357.2842,304,361.2842,300,357.2842" style="stroke:#111827;stroke-width:1.0;"/><text fill="#000000" font-family="Arial" font-size="13" font-weight="bold" lengthAdjust="spacing" textLength="7" x="300" y="324.5806">4</text><text fill="#000000" font-family="Arial" font-size="13" lengthAdjust="spacing" textLength="199" x="311" y="309.6318">Flag der Listeneintr&#228;ge aufbereiten</text><text fill="#000000" font-family="Arial" font-size="13" lengthAdjust="spacing" textLength="159" x="311" y="324.5806">new|changed &#8594; unchanged</text><text fill="#000000" font-family="Arial" font-size="13" lengthAdjust="spacing" textLength="122" x="311" y="339.5293">removed &#8594; entfernen</text><line style="stroke:#111827;stroke-width:1.0;" x1="293" x2="335" y1="386.2329" y2="386.2329"/><line style="stroke:#111827;stroke-width:1.0;" x1="335" x2="335" y1="386.2329" y2="399.2329"/><line style="stroke:#111827;stroke-width:1.0;" x1="294" x2="335" y1="399.2329" y2="399.2329"/><polygon fill="#111827" points="304,395.2329,294,399.2329,304,403.2329,300,399.2329" style="stroke:#111827;stroke-width:1.0;"/><text fill="#000000" font-family="Arial" font-size="13" font-weight="bold" lengthAdjust="spacing" textLength="7" x="300" y="381.478">5</text><text fill="#000000" font-family="Arial" font-size="13" lengthAdjust="spacing" textLength="145" x="311" y="381.478">Z&#228;hlen der Listeneintr&#228;ge</text><path d="M35,414.2329 L222,414.2329 L222,422.3315 L212,432.3315 L30,432.3315 L30,419.2329 A5,5 0 0 1 35,414.2329 " fill="#EEF2FF" style="stroke:#111827;stroke-width:1.5;"/><rect fill="none" height="167.0396" rx="5" ry="5" style="stroke:#111827;stroke-width:2.0;" width="507" x="30" y="414.2329"/><text fill="#000000" font-family="Arial" font-size="14" font-weight="bold" lengthAdjust="spacing" textLength="143" x="45" y="428.3647">alt: Anzahl Eintr&#228;ge?</text><text fill="#000000" font-family="Arial" font-size="14" font-weight="bold" lengthAdjust="spacing" textLength="162" x="237" y="429.3647">[zumindest ein Eintrag]</text><polygon fill="#111827" points="80,465.3276,70,469.3276,80,473.3276,76,469.3276" style="stroke:#111827;stroke-width:1.0;"/><line style="stroke:#111827;stroke-width:1.0;" x1="74" x2="282" y1="469.3276" y2="469.3276"/><text fill="#000000" font-family="Arial" font-size="13" font-weight="bold" lengthAdjust="spacing" textLength="7" x="86" y="457.0984">6</text><text fill="#000000" font-family="Arial" font-size="13" lengthAdjust="spacing" textLength="166" x="97" y="449.624">Collection-Bundle (nicht leer)</text><text fill="#000000" font-family="Arial" font-size="13" lengthAdjust="spacing" textLength="172" x="97" y="464.5728">+ ETag f&#252;r Optimistic Locking</text><line style="stroke:#111827;stroke-width:1.0;stroke-dasharray:2.0,2.0;" x1="30" x2="537" y1="478.3276" y2="478.3276"/><text fill="#000000" font-family="Arial" font-size="14" font-weight="bold" lengthAdjust="spacing" textLength="76" x="35" y="491.4595">[Liste leer]</text><line style="stroke:#111827;stroke-width:1.0;" x1="293" x2="335" y1="516.375" y2="516.375"/><line style="stroke:#111827;stroke-width:1.0;" x1="335" x2="335" y1="516.375" y2="529.375"/><line style="stroke:#111827;stroke-width:1.0;" x1="294" x2="335" y1="529.375" y2="529.375"/><polygon fill="#111827" points="304,525.375,294,529.375,304,533.375,300,529.375" style="stroke:#111827;stroke-width:1.0;"/><text fill="#000000" font-family="Arial" font-size="13" font-weight="bold" lengthAdjust="spacing" textLength="7" x="300" y="511.6201">7</text><text fill="#000000" font-family="Arial" font-size="13" lengthAdjust="spacing" textLength="214" x="311" y="511.6201">List.emptyReason = nilknown setzen</text><polygon fill="#111827" points="80,569.2725,70,573.2725,80,577.2725,76,573.2725" style="stroke:#111827;stroke-width:1.0;"/><line style="stroke:#111827;stroke-width:1.0;" x1="74" x2="282" y1="573.2725" y2="573.2725"/><text fill="#000000" font-family="Arial" font-size="13" font-weight="bold" lengthAdjust="spacing" textLength="7" x="86" y="561.0432">8</text><text fill="#000000" font-family="Arial" font-size="13" lengthAdjust="spacing" textLength="134" x="97" y="553.5688">Collection-Bundle (leer)</text><text fill="#000000" font-family="Arial" font-size="13" lengthAdjust="spacing" textLength="172" x="97" y="568.5176">+ ETag f&#252;r Optimistic Locking</text><line style="stroke:#111827;stroke-width:1.0;stroke-dasharray:2.0,2.0;" x1="20" x2="547" y1="589.2725" y2="589.2725"/><text fill="#000000" font-family="Arial" font-size="14" font-weight="bold" lengthAdjust="spacing" textLength="22" x="25" y="602.4043">[ja]</text><path d="M115,616.3711 L115,648.3711 A5,5 0 0 0 120,653.3711 L456,653.3711 A5,5 0 0 0 461,648.3711 L461,621.3711 L451,611.3711 L120,611.3711 A5,5 0 0 0 115,616.3711 " fill="url(#gcrk8xgu28s4i0)" style="stroke:#8B95A5;stroke-width:1.0;"/><path d="M451,611.3711 L451,618.8711 A2.5,2.5 0 0 0 453.5,621.3711 L461,621.3711 L451,611.3711 " fill="url(#gcrk8xgu28s4i0)" style="stroke:#8B95A5;stroke-width:1.0;"/><text fill="#111827" font-family="Arial" font-size="14" lengthAdjust="spacing" textLength="321" x="121" y="629.5029">List.emptyReason kann den Wert "notstarted" oder</text><text fill="#111827" font-family="Arial" font-size="14" lengthAdjust="spacing" textLength="112" x="121" y="645.6016">"nilknown" haben.</text><polygon fill="#111827" points="80,690.4658,70,694.4658,80,698.4658,76,694.4658" style="stroke:#111827;stroke-width:1.0;"/><line style="stroke:#111827;stroke-width:1.0;" x1="74" x2="282" y1="694.4658" y2="694.4658"/><text fill="#000000" font-family="Arial" font-size="13" font-weight="bold" lengthAdjust="spacing" textLength="7" x="86" y="682.2366">9</text><text fill="#000000" font-family="Arial" font-size="13" lengthAdjust="spacing" textLength="134" x="97" y="674.7622">Collection-Bundle (leer)</text><text fill="#000000" font-family="Arial" font-size="13" lengthAdjust="spacing" textLength="172" x="97" y="689.7109">+ ETag f&#252;r Optimistic Locking</text><line style="stroke:#111827;stroke-width:1.0;stroke-dasharray:2.0,2.0;" x1="10" x2="656" y1="710.4658" y2="710.4658"/><text fill="#000000" font-family="Arial" font-size="14" font-weight="bold" lengthAdjust="spacing" textLength="164" x="15" y="723.5977">[Liste nicht vorhanden]</text><line style="stroke:#111827;stroke-width:1.0;" x1="293" x2="335" y1="748.5132" y2="748.5132"/><line style="stroke:#111827;stroke-width:1.0;" x1="335" x2="335" y1="748.5132" y2="761.5132"/><line style="stroke:#111827;stroke-width:1.0;" x1="294" x2="335" y1="761.5132" y2="761.5132"/><polygon fill="#111827" points="304,757.5132,294,761.5132,304,765.5132,300,761.5132" style="stroke:#111827;stroke-width:1.0;"/><text fill="#000000" font-family="Arial" font-size="13" font-weight="bold" lengthAdjust="spacing" textLength="14" x="300" y="743.7583">10</text><text fill="#000000" font-family="Arial" font-size="13" lengthAdjust="spacing" textLength="326" x="318" y="743.7583">Leere Liste mit List.emptyReason = notstarted erzeugen</text><polygon fill="#111827" points="80,801.4106,70,805.4106,80,809.4106,76,805.4106" style="stroke:#111827;stroke-width:1.0;"/><line style="stroke:#111827;stroke-width:1.0;" x1="74" x2="287" y1="805.4106" y2="805.4106"/><text fill="#000000" font-family="Arial" font-size="13" font-weight="bold" lengthAdjust="spacing" textLength="14" x="86" y="793.1814">11</text><text fill="#000000" font-family="Arial" font-size="13" lengthAdjust="spacing" textLength="134" x="104" y="785.707">Collection-Bundle (leer)</text><text fill="#000000" font-family="Arial" font-size="13" lengthAdjust="spacing" textLength="172" x="104" y="800.6558">+ ETag f&#252;r Optimistic Locking</text><!--SRC=[hLPHRjj64FtdAQPqWIP8dP9q95i6saAAfRIe4HcoWW2jYs153gcjo5rrkRHgjVtj0Ng6d25V-TDDUfBEafIq4caK1R8sR6fcTjwRURj3QQvJX6kUQuH2HB0k4fnlFYYU84mmpsMXGXJ0Pgg8wV-JpnMowAdZV94lk5WonJ9WePRgLZzG7hR2N6ReE7llJAe8rKkPIWKdNhbiBmiNYPA4N4V47VDZHUHp5iaL5md4BCtHyjJRb405lfqqmfWLgHv9eL-p3C7jAyvIjptYbgyH_1VjpiTeV_UmH9LoiR02XiEsW3SYAX-mGNyWVxjXKMGg2xn3-y3kMQTSTak59B5-Tm06nzr33pknTteI-L4FkoR2pdGnwtLOPsUTpdcu4AGn-6IRMDtqwFEMcybYjSBt_OlWd6otHxhyQJFCyTS2HLYnl65Ayv0lcT1jXHq6DCv3kGw3cieqt5jL3nnMkm7wIidLSL6byR0lfQaDSUUeiCx8z8gOBmzgt6MkN0szC0xAwgoTU_Z0DFKpEexc-BmSNuydxrvTzT_vGEl4xtIzY-32Qma8oe1Uj-kTNpK2RlhJxuUlfoP3hpi8NZG2HdtoOUyyE0jcqJ7- -0UereatwWslEa7dA60ucOmdPS2mT-wV1MTqSii10HLrbeDBJ-2xTaNESgyI404JDMBXd8aLYgWGYRiZH-aABKMHpL0vJfNqz1lQT0atuzifV5LEA8F9xndTaoh2njgv26YVbJviqwZDHvfrNuASrODnXlHthXt7YBVSjuAb-h8EkPUAs4OeleMVZYm_E-OAFPh-EMPB_J11bakntmJaeMtq-nXc-pw25yWhJ1jrbBA49fkgw9eGhJRlQSYp8gPE8YVZdH2u-iDqFS48_ldhRteZr9_kXC9CtjTc53f6cXJY2EJ7pVjvIjnRS2e-RRNqnPhDKnXk8wc2TP5nAYRNGFih3qlgahPufPQNG1SfHH9KYjC1tIjw1pqHF9nhI17Lqpln38PJgZpUV5GmNcgU4IqUmhKCQLWbLKga-NLmV2i1JOOQyW3PLDeGu6iGF5q8kH8q_FIwRir_a_q_D4La7XfiVs6Lltmja4QAG6lq1iq54qOU0MzHQN1fIwxfwc7aWZIgrVlSRJ4kpDaCnVCjWHB4-QI5cR8UKQ1ISdUsg_jWYK0Gs-yk6TUjekmA15Hhf2ytmlbKt84QQSqInoa5icpLkA7rBm00]--></g></svg>