<?xml version="1.0" encoding="us-ascii" standalone="no"?><svg xmlns="http://www.w3.org/2000/svg" xmlns:xlink="http://www.w3.org/1999/xlink" contentStyleType="text/css" height="460px" preserveAspectRatio="none" style="width:758px;height:460px;background:#F5F5F5;" version="1.1" viewBox="0 0 758 460" width="758px" zoomAndPan="magnify"><defs/><g><rect fill="#F5F5F5" height="460" style="stroke:none;stroke-width:1.0;" width="758" x="0" y="0"/><text fill="#000000" font-family="Arial" font-size="14" font-weight="bold" lengthAdjust="spacing" textLength="120" x="320" y="28.1318">List-History-Read</text><rect fill="#156082" fill-opacity="0.50196" height="206.1382" style="stroke:#181818;stroke-width:1.0;" width="10" x="39" y="149.146"/><rect fill="#E97232" fill-opacity="0.74118" height="206.1382" style="stroke:#181818;stroke-width:1.0;" width="10" x="456" y="149.146"/><rect fill="#0F9ED5" fill-opacity="0.14510" height="142.2407" rx="5" ry="5" style="stroke:#111827;stroke-width:2.0;" width="741" x="10" y="221.0435"/><path d="M10,269.1895 L751,269.1895 L751,311.2368 A5,5 0 0 1 746,316.2368 L15,316.2368 A5,5 0 0 1 10,311.2368 L10,269.1895 " fill="#0F9ED5" fill-opacity="0.14510" style="stroke:none;stroke-width:1.0;"/><path d="M10,316.2368 L751,316.2368 L751,358.2842 A5,5 0 0 1 746,363.2842 L15,363.2842 A5,5 0 0 1 10,358.2842 L10,316.2368 " fill="#E97132" fill-opacity="0.20784" style="stroke:none;stroke-width:1.0;"/><line style="stroke:#181818;stroke-width:0.5;stroke-dasharray:5.0,5.0;" x1="44" x2="44" y1="118.1973" y2="380.2842"/><line style="stroke:#181818;stroke-width:0.5;stroke-dasharray:5.0,5.0;" x1="460.5" x2="460.5" y1="118.1973" y2="380.2842"/><text fill="#000000" font-family="Arial" font-size="14" lengthAdjust="spacing" textLength="42" x="20" y="115.2305">GDA 1</text><ellipse cx="44" cy="50.5986" fill="#156082" fill-opacity="0.50196" rx="8" ry="8" style="stroke:#181818;stroke-width:0.5;"/><path d="M44,58.5986 L44,85.5986 M31,66.5986 L57,66.5986 M44,85.5986 L31,100.5986 M44,85.5986 L57,100.5986 " fill="none" style="stroke:#181818;stroke-width:0.5;"/><text fill="#000000" font-family="Arial" font-size="14" lengthAdjust="spacing" textLength="42" x="20" y="392.416">GDA 1</text><ellipse cx="44" cy="403.8828" fill="#156082" fill-opacity="0.50196" rx="8" ry="8" style="stroke:#181818;stroke-width:0.5;"/><path d="M44,411.8828 L44,438.8828 M31,419.8828 L57,419.8828 M44,438.8828 L31,453.8828 M44,438.8828 L57,453.8828 " fill="none" style="stroke:#181818;stroke-width:0.5;"/><rect fill="#E97232" fill-opacity="0.74118" height="30.0986" rx="5" ry="5" style="stroke:#555555;stroke-width:0.5;" width="119" x="401.5" y="87.0986"/><text fill="#000000" font-family="Arial" font-size="14" lengthAdjust="spacing" textLength="105" x="408.5" y="107.2305">Fachanwendung</text><rect fill="#E97232" fill-opacity="0.74118" height="30.0986" rx="5" ry="5" style="stroke:#555555;stroke-width:0.5;" width="119" x="401.5" y="379.2842"/><text fill="#000000" font-family="Arial" font-size="14" lengthAdjust="spacing" textLength="105" x="408.5" y="399.416">Fachanwendung</text><rect fill="#156082" fill-opacity="0.50196" height="206.1382" style="stroke:#181818;stroke-width:1.0;" width="10" x="39" y="149.146"/><rect fill="#E97232" fill-opacity="0.74118" height="206.1382" style="stroke:#181818;stroke-width:1.0;" width="10" x="456" y="149.146"/><polygon fill="#111827" points="444,145.146,454,149.146,444,153.146,448,149.146" style="stroke:#111827;stroke-width:1.0;"/><line style="stroke:#111827;stroke-width:1.0;" x1="49" x2="450" y1="149.146" y2="149.146"/><text fill="#000000" font-family="Arial" font-size="13" font-weight="bold" lengthAdjust="spacing" textLength="7" x="56" y="144.3911">1</text><text fill="#000000" font-family="Arial" font-size="13" lengthAdjust="spacing" textLength="118" x="67" y="144.3911">POST /$history-read</text><line style="stroke:#111827;stroke-width:1.0;" x1="466" x2="508" y1="193.0435" y2="193.0435"/><line style="stroke:#111827;stroke-width:1.0;" x1="508" x2="508" y1="193.0435" y2="206.0435"/><line style="stroke:#111827;stroke-width:1.0;" x1="467" x2="508" y1="206.0435" y2="206.0435"/><polygon fill="#111827" points="477,202.0435,467,206.0435,477,210.0435,473,206.0435" style="stroke:#111827;stroke-width:1.0;"/><text fill="#000000" font-family="Arial" font-size="13" font-weight="bold" lengthAdjust="spacing" textLength="7" x="473" y="180.8142">2</text><text fill="#000000" font-family="Arial" font-size="13" lengthAdjust="spacing" textLength="136" x="484" y="173.3398">Pr&#252;fung auf bestehende</text><text fill="#000000" font-family="Arial" font-size="13" lengthAdjust="spacing" textLength="108" x="484" y="188.2886">Collection-Bundles</text><path d="M15,221.0435 L299,221.0435 L299,229.1421 L289,239.1421 L10,239.1421 L10,226.0435 A5,5 0 0 1 15,221.0435 " fill="#EEF2FF" style="stroke:#111827;stroke-width:1.5;"/><rect fill="none" height="142.2407" rx="5" ry="5" style="stroke:#111827;stroke-width:2.0;" width="741" x="10" y="221.0435"/><text fill="#000000" font-family="Arial" font-size="14" font-weight="bold" lengthAdjust="spacing" textLength="240" x="25" y="235.1753">alt: Collection-Bundles gefunden?</text><text fill="#000000" font-family="Arial" font-size="14" font-weight="bold" lengthAdjust="spacing" textLength="432" x="314" y="236.1753">[Collection-Bundles entsprechend der Parameter vorhanden]</text><polygon fill="#111827" points="60,257.1895,50,261.1895,60,265.1895,56,261.1895" style="stroke:#111827;stroke-width:1.0;"/><line style="stroke:#111827;stroke-width:1.0;" x1="54" x2="455" y1="261.1895" y2="261.1895"/><text fill="#000000" font-family="Arial" font-size="13" font-weight="bold" lengthAdjust="spacing" textLength="7" x="66" y="256.4346">3</text><text fill="#000000" font-family="Arial" font-size="13" lengthAdjust="spacing" textLength="372" x="77" y="256.4346">Bundle (type=searchset) mit zumindest einem Collection-Bundle</text><line style="stroke:#111827;stroke-width:1.0;stroke-dasharray:2.0,2.0;" x1="10" x2="751" y1="270.1895" y2="270.1895"/><text fill="#000000" font-family="Arial" font-size="14" font-weight="bold" lengthAdjust="spacing" textLength="458" x="15" y="283.3213">[kein Collection-Bundle entsprechend der Parameter vorhanden]</text><polygon fill="#111827" points="60,304.2368,50,308.2368,60,312.2368,56,308.2368" style="stroke:#111827;stroke-width:1.0;"/><line style="stroke:#111827;stroke-width:1.0;" x1="54" x2="455" y1="308.2368" y2="308.2368"/><text fill="#000000" font-family="Arial" font-size="13" font-weight="bold" lengthAdjust="spacing" textLength="7" x="66" y="303.4819">4</text><text fill="#000000" font-family="Arial" font-size="13" lengthAdjust="spacing" textLength="226" x="77" y="303.4819">Bundle (type=searchset) ohne Eintr&#228;ge</text><line style="stroke:#111827;stroke-width:1.0;stroke-dasharray:2.0,2.0;" x1="10" x2="751" y1="317.2368" y2="317.2368"/><text fill="#000000" font-family="Arial" font-size="14" font-weight="bold" lengthAdjust="spacing" textLength="56" x="15" y="330.3687">[Fehler]</text><polygon fill="#111827" points="55,351.2842,45,355.2842,55,359.2842,51,355.2842" style="stroke:#111827;stroke-width:1.0;"/><line style="stroke:#111827;stroke-width:1.0;" x1="49" x2="460" y1="355.2842" y2="355.2842"/><text fill="#000000" font-family="Arial" font-size="13" font-weight="bold" lengthAdjust="spacing" textLength="7" x="61" y="350.5293">5</text><text fill="#000000" font-family="Arial" font-size="13" lengthAdjust="spacing" textLength="109" x="72" y="350.5293">OperationOutcome</text><!--SRC=[ZLNRRjf047ttLqoXKji7LDl4W2Er5IGcgHh52EXBBueMUy0MPatNwz2awj_qC_gM7-kidS3Qfb8M2TapPsREN7OiOvaWNCMPx5pINohkEbDaeM6yojOntpB1Di02ai_a7G7P3hDqWuPnq2vI4Q8uIvDKGDiiZgvbmNebqfo7ZuYbetuQ8ejOcEvYle8bIpBKD8zcWgC0ItSQufBbYHodN5wp3K9hA6AMj8uZPl4zWdLoNFa_sfTtMnH9pDSQmFEE0Jxpi7Z01lrH-dF2mb1bPfjL-KYlcLCSlQGybGY_381HlNfeehCqE-tG2btiAOJkQR1m7URifVCe3jOSimmiaasrQfhq_iHDUT5AOLdMmEwJR5Rhos-TOOO_SkH1oNB2X8o3UCkuF9PO5T2OX-9KGStEDDHFNQqej78338L8T_Ma2c6rBeNeMCIzeepL9T45CTzMSjnxBbMDVk7IBhBJB0_XRLNK5pIEQdpE_2j_UdDnFhonW4xRSdhcm1wOHm1s0N1xFRD_tW1CXlEFtlLSUN1x8_ka0HXEV2XEsnoxthdZrW7Z8UdGxTjTUn7MTDxDrFlYJURG3i9klsipjvw1_magxcsdxc8wzQS5m7FxLjVkqkmRnOw1CdkMGOkUm6hfHJ6sXqO3KLIeCGiYndV8mvolMdlwobykKvvl5YWCe_JQUKzMfp3nPtDu-p9wN7QYM7OKFRvbTEbAg1vrhwAG1__qykHFFFnTKdHW-H8Mc4cCY0v-upG12P9noZiZ6eW4CyDGix4zr8abyXIQE5WXUGoHVu2lHxJ8PROL6AWujCk4kW6q1IKztQQ2wa6MtzMbBZWMMPn2QGol9UsjTnao4KGPoZUmYINSvvkOZ389I5tQD1aPI0lWG7jDi2ReMRoUIokDQ5oyc4lny6TLYLzEpnYZX5fRy-RJJcQAaf_BG7scW7XKUriLKIk9hF4F]--></g></svg>