<?xml version="1.0" encoding="us-ascii" standalone="no"?><svg xmlns="http://www.w3.org/2000/svg" xmlns:xlink="http://www.w3.org/1999/xlink" contentStyleType="text/css" height="526px" preserveAspectRatio="none" style="width:554px;height:526px;background:#F5F5F5;" version="1.1" viewBox="0 0 554 526" width="554px" zoomAndPan="magnify"><defs><linearGradient id="gez2mbaarxoqh0" x1="50%" x2="50%" y1="0%" y2="100%"><stop offset="0%" stop-color="#E0E5F0"/><stop offset="100%" stop-color="#D1D9E6"/></linearGradient></defs><g><rect fill="#F5F5F5" height="526" style="stroke:none;stroke-width:1.0;" width="554" x="0" y="0"/><text fill="#000000" font-family="Arial" font-size="14" font-weight="bold" lengthAdjust="spacing" textLength="120" x="213" y="28.1318">List-History-Read</text><rect fill="#156082" fill-opacity="0.50196" height="159.0908" style="stroke:#181818;stroke-width:1.0;" width="10" x="100" y="193.2446"/><rect fill="#E97232" fill-opacity="0.74118" height="159.0908" style="stroke:#181818;stroke-width:1.0;" width="10" x="364" y="193.2446"/><rect fill="#0F9ED5" fill-opacity="0.14510" height="95.1934" rx="5" ry="5" style="stroke:#111827;stroke-width:2.0;" width="387.5" x="71" y="265.1421"/><path d="M71,313.2881 L458.5,313.2881 L458.5,355.3354 A5,5 0 0 1 453.5,360.3354 L76,360.3354 A5,5 0 0 1 71,355.3354 L71,313.2881 " fill="#E97132" fill-opacity="0.20784" style="stroke:none;stroke-width:1.0;"/><line style="stroke:#181818;stroke-width:0.5;stroke-dasharray:5.0,5.0;" x1="105" x2="105" y1="118.1973" y2="445.6313"/><line style="stroke:#181818;stroke-width:0.5;stroke-dasharray:5.0,5.0;" x1="368.5" x2="368.5" y1="118.1973" y2="445.6313"/><text fill="#000000" font-family="Arial" font-size="14" lengthAdjust="spacing" textLength="42" x="81" y="115.2305">GDA 1</text><ellipse cx="105" cy="50.5986" fill="#156082" fill-opacity="0.50196" rx="8" ry="8" style="stroke:#181818;stroke-width:0.5;"/><path d="M105,58.5986 L105,85.5986 M92,66.5986 L118,66.5986 M105,85.5986 L92,100.5986 M105,85.5986 L118,100.5986 " fill="none" style="stroke:#181818;stroke-width:0.5;"/><text fill="#000000" font-family="Arial" font-size="14" lengthAdjust="spacing" textLength="42" x="81" y="457.7632">GDA 1</text><ellipse cx="105" cy="469.23" fill="#156082" fill-opacity="0.50196" rx="8" ry="8" style="stroke:#181818;stroke-width:0.5;"/><path d="M105,477.23 L105,504.23 M92,485.23 L118,485.23 M105,504.23 L92,519.23 M105,504.23 L118,519.23 " fill="none" style="stroke:#181818;stroke-width:0.5;"/><rect fill="#E97232" fill-opacity="0.74118" height="30.0986" rx="5" ry="5" style="stroke:#555555;stroke-width:0.5;" width="119" x="309.5" y="87.0986"/><text fill="#000000" font-family="Arial" font-size="14" lengthAdjust="spacing" textLength="105" x="316.5" y="107.2305">Fachanwendung</text><rect fill="#E97232" fill-opacity="0.74118" height="30.0986" rx="5" ry="5" style="stroke:#555555;stroke-width:0.5;" width="119" x="309.5" y="444.6313"/><text fill="#000000" font-family="Arial" font-size="14" lengthAdjust="spacing" textLength="105" x="316.5" y="464.7632">Fachanwendung</text><rect fill="#156082" fill-opacity="0.50196" height="159.0908" style="stroke:#181818;stroke-width:1.0;" width="10" x="100" y="193.2446"/><rect fill="#E97232" fill-opacity="0.74118" height="159.0908" style="stroke:#181818;stroke-width:1.0;" width="10" x="364" y="193.2446"/><rect fill="#EEEEEE" height="3" rx="5" ry="5" style="stroke:#EEEEEE;stroke-width:1.0;" width="547" x="0" y="149.2466"/><line style="stroke:#000000;stroke-width:1.0;" x1="0" x2="547" y1="149.2466" y2="149.2466"/><line style="stroke:#000000;stroke-width:1.0;" x1="0" x2="547" y1="152.2466" y2="152.2466"/><rect fill="#EEEEEE" height="24.0986" rx="5" ry="5" style="stroke:#000000;stroke-width:2.0;" width="177" x="185" y="138.1973"/><text fill="#000000" font-family="Arial" font-size="14" font-weight="bold" lengthAdjust="spacing" textLength="159" x="191" y="155.3291">Medikationsplan lesen</text><polygon fill="#111827" points="352,189.2446,362,193.2446,352,197.2446,356,193.2446" style="stroke:#111827;stroke-width:1.0;"/><line style="stroke:#111827;stroke-width:1.0;" x1="110" x2="358" y1="193.2446" y2="193.2446"/><text fill="#000000" font-family="Arial" font-size="13" font-weight="bold" lengthAdjust="spacing" textLength="7" x="117" y="188.4897">1</text><text fill="#000000" font-family="Arial" font-size="13" lengthAdjust="spacing" textLength="229" x="128" y="188.4897">GET Medikationsplan-Collection-Bundle</text><line style="stroke:#111827;stroke-width:1.0;" x1="374" x2="416" y1="237.1421" y2="237.1421"/><line style="stroke:#111827;stroke-width:1.0;" x1="416" x2="416" y1="237.1421" y2="250.1421"/><line style="stroke:#111827;stroke-width:1.0;" x1="375" x2="416" y1="250.1421" y2="250.1421"/><polygon fill="#111827" points="385,246.1421,375,250.1421,385,254.1421,381,250.1421" style="stroke:#111827;stroke-width:1.0;"/><text fill="#000000" font-family="Arial" font-size="13" font-weight="bold" lengthAdjust="spacing" textLength="7" x="381" y="224.9128">2</text><text fill="#000000" font-family="Arial" font-size="13" lengthAdjust="spacing" textLength="143" x="392" y="217.4385">Pr&#252;fung auf bestehenden</text><text fill="#000000" font-family="Arial" font-size="13" lengthAdjust="spacing" textLength="94" x="392" y="232.3872">Medikationsplan</text><path d="M76,265.1421 L133,265.1421 L133,273.2407 L123,283.2407 L71,283.2407 L71,270.1421 A5,5 0 0 1 76,265.1421 " fill="#EEF2FF" style="stroke:#111827;stroke-width:1.5;"/><rect fill="none" height="95.1934" rx="5" ry="5" style="stroke:#111827;stroke-width:2.0;" width="387.5" x="71" y="265.1421"/><text fill="#000000" font-family="Arial" font-size="14" font-weight="bold" lengthAdjust="spacing" textLength="17" x="86" y="279.2739">alt</text><text fill="#000000" font-family="Arial" font-size="14" font-weight="bold" lengthAdjust="spacing" textLength="207" x="148" y="280.2739">[Medikationsplan vorhanden]</text><polygon fill="#111827" points="121,301.2881,111,305.2881,121,309.2881,117,305.2881" style="stroke:#111827;stroke-width:1.0;"/><line style="stroke:#111827;stroke-width:1.0;" x1="115" x2="363" y1="305.2881" y2="305.2881"/><text fill="#000000" font-family="Arial" font-size="13" font-weight="bold" lengthAdjust="spacing" textLength="7" x="127" y="300.5332">3</text><text fill="#000000" font-family="Arial" font-size="13" lengthAdjust="spacing" textLength="199" x="138" y="300.5332">Medikationsplan-Collection-Bundle</text><line style="stroke:#111827;stroke-width:1.0;stroke-dasharray:2.0,2.0;" x1="71" x2="458.5" y1="314.2881" y2="314.2881"/><text fill="#000000" font-family="Arial" font-size="14" font-weight="bold" lengthAdjust="spacing" textLength="241" x="76" y="327.4199">[kein Medikationsplan vorhanden]</text><polygon fill="#111827" points="116,348.3354,106,352.3354,116,356.3354,112,352.3354" style="stroke:#111827;stroke-width:1.0;"/><line style="stroke:#111827;stroke-width:1.0;stroke-dasharray:2.0,2.0;" x1="110" x2="368" y1="352.3354" y2="352.3354"/><text fill="#000000" font-family="Arial" font-size="13" font-weight="bold" lengthAdjust="spacing" textLength="7" x="122" y="347.5806">4</text><text fill="#000000" font-family="Arial" font-size="13" lengthAdjust="spacing" textLength="90" x="133" y="347.5806">leeres Ergebnis</text><path d="M5,377.3354 L5,425.3354 A5,5 0 0 0 10,430.3354 L465,430.3354 A5,5 0 0 0 470,425.3354 L470,382.3354 L460,372.3354 L10,372.3354 A5,5 0 0 0 5,377.3354 " fill="url(#gez2mbaarxoqh0)" style="stroke:#8B95A5;stroke-width:1.0;"/><path d="M460,372.3354 L460,379.8354 A2.5,2.5 0 0 0 462.5,382.3354 L470,382.3354 L460,372.3354 " fill="url(#gez2mbaarxoqh0)" style="stroke:#8B95A5;stroke-width:1.0;"/><text fill="#111827" font-family="Arial" font-size="14" lengthAdjust="spacing" textLength="440" x="11" y="390.4673">Die Fachanwendung liefert den zuletzt gespeicherten Medikationsplan</text><text fill="#111827" font-family="Arial" font-size="14" lengthAdjust="spacing" textLength="422" x="11" y="406.5659">(unver&#228;ndert, inkl. aller referenzierten Ressourcen) oder ein leeres</text><text fill="#111827" font-family="Arial" font-size="14" lengthAdjust="spacing" textLength="105" x="11" y="422.6646">Ergebnis zur&#252;ck.</text><!--SRC=[ZLJRRjf047tVhvZ2GrifHBO944TA9MWCgPe6HEXBLGajzW0hp2vThqEJgd_Jp-XRVgnZSriRAcMHa3rpVERCcTqrmiG8To8njLlwK_gfDaGUCVOsMGYvufelWOSKVp1F1EHhJDGI6Jja9qf7g3-gM6ceElcoipnSpBHAPRH5J1lPpq8aSnwfjP0pcF8uGIkp_KnBrE3Qf15EUHgRhfBcdYyHAcqjU5mvZNWGpmZknUda_sJVFgrGnq8kB40Gd09ybL7-W4VoE-hdW4THrfdd5ECTsxD6lcnBfJ88lnX0f-mUEjYOEhLgv4O-DZE4pNGvyHkyiO-EvY9SI4mIS2asjDnqw7sdBMEnh71Tzz9hKUoXD9VVji84VwGemutA0TT6X6B5fJdLM15mj1_oLGGTJ-OelPjg8M7P3T3MMgtBJUN1eYzvw5J5VM9JgqwX7YbV5NhSCszIH_F2gPTtPtrvAEzbfhwXxPXjdu_zk_vmtBjfZrsWLNKRJUVIktHE0BmSu3URJklc231eZpu5zwECmMzsl8iZG7lGXtnLdQuVt3JyCY2uwxN7tJO1q6zvTMyIbG7ZOV0j68oW6aRrLjtZVhcD_cSerF0QPOhXi3_C0O7VSkjUdGu0ooyQs5Z04wZG4xWLsncsEamRC9xnJ6S6xV9mpkKQPPJAMQNOICQS6YNJvGGrOzVNy0KZiU16A9ciOYuXnWGbN5ypjYbU-x0Zlu9UC2hZQpJT6CFilTQXOSUOIHUFd8xjXi2MVCZj11VLxQ9sqO5- -JkbJe2dKvXWOd1EhQ7yBajIY3qs1zFBZJqgJRRGXxG5hJgviAjNj8LqyWiJMw2GhwjoA1CZQamWq3ESI94GACAYNyNGbe9HnupbTw5wnEs-EDjdRmH2OUeG2voYDaGbuJcDqJmRc66oGX7EAOx7mjcxL1Brov_i4ZTdGFTvV0wSND2WCpAKpsBpwP0Eh4frYF8zA493PiIcCxRhZAhItCB5UIOzlyKP-mS0]--></g></svg>