<?xml version="1.0" encoding="us-ascii" standalone="no"?><svg xmlns="http://www.w3.org/2000/svg" xmlns:xlink="http://www.w3.org/1999/xlink" contentStyleType="text/css" height="967px" preserveAspectRatio="none" style="width:835px;height:967px;background:#F5F5F5;" version="1.1" viewBox="0 0 835 967" width="835px" zoomAndPan="magnify"><defs><linearGradient id="gg1afa5zuufxr0" x1="50%" x2="50%" y1="0%" y2="100%"><stop offset="0%" stop-color="#E0E5F0"/><stop offset="100%" stop-color="#D1D9E6"/></linearGradient></defs><g><rect fill="#F5F5F5" height="967" style="stroke:none;stroke-width:1.0;" width="835" x="0" y="0"/><text fill="#000000" font-family="Arial" font-size="14" font-weight="bold" lengthAdjust="spacing" textLength="113" x="357" y="28.1318">Plan-Write-Error</text><rect fill="#156082" fill-opacity="0.50196" height="623.0239" style="stroke:#181818;stroke-width:1.0;" width="10" x="88" y="193.2446"/><rect fill="#E97232" fill-opacity="0.74118" height="28.9487" style="stroke:#181818;stroke-width:1.0;" width="10" x="409" y="193.2446"/><rect fill="#E97232" fill-opacity="0.74118" height="28.9487" style="stroke:#181818;stroke-width:1.0;" width="10" x="409" y="331.3394"/><rect fill="#E97232" fill-opacity="0.74118" height="121.9448" style="stroke:#181818;stroke-width:1.0;" width="10" x="409" y="469.4341"/><rect fill="#E97232" fill-opacity="0.74118" height="151.8423" style="stroke:#181818;stroke-width:1.0;" width="10" x="409" y="664.4263"/><rect fill="#96607D" fill-opacity="0.50196" height="260.0396" style="stroke:#181818;stroke-width:1.0;" width="10" x="730" y="331.3394"/><line style="stroke:#181818;stroke-width:0.5;stroke-dasharray:5.0,5.0;" x1="93" x2="93" y1="118.1973" y2="886.4658"/><line style="stroke:#181818;stroke-width:0.5;stroke-dasharray:5.0,5.0;" x1="413.5" x2="413.5" y1="118.1973" y2="886.4658"/><line style="stroke:#181818;stroke-width:0.5;stroke-dasharray:5.0,5.0;" x1="735" x2="735" y1="118.1973" y2="886.4658"/><text fill="#000000" font-family="Arial" font-size="14" lengthAdjust="spacing" textLength="42" x="69" y="115.2305">GDA 1</text><ellipse cx="93" cy="50.5986" fill="#156082" fill-opacity="0.50196" rx="8" ry="8" style="stroke:#181818;stroke-width:0.5;"/><path d="M93,58.5986 L93,85.5986 M80,66.5986 L106,66.5986 M93,85.5986 L80,100.5986 M93,85.5986 L106,100.5986 " fill="none" style="stroke:#181818;stroke-width:0.5;"/><text fill="#000000" font-family="Arial" font-size="14" lengthAdjust="spacing" textLength="42" x="69" y="898.5977">GDA 1</text><ellipse cx="93" cy="910.0645" fill="#156082" fill-opacity="0.50196" rx="8" ry="8" style="stroke:#181818;stroke-width:0.5;"/><path d="M93,918.0645 L93,945.0645 M80,926.0645 L106,926.0645 M93,945.0645 L80,960.0645 M93,945.0645 L106,960.0645 " fill="none" style="stroke:#181818;stroke-width:0.5;"/><rect fill="#E97232" fill-opacity="0.74118" height="30.0986" rx="5" ry="5" style="stroke:#555555;stroke-width:0.5;" width="119" x="354.5" y="87.0986"/><text fill="#000000" font-family="Arial" font-size="14" lengthAdjust="spacing" textLength="105" x="361.5" y="107.2305">Fachanwendung</text><rect fill="#E97232" fill-opacity="0.74118" height="30.0986" rx="5" ry="5" style="stroke:#555555;stroke-width:0.5;" width="119" x="354.5" y="885.4658"/><text fill="#000000" font-family="Arial" font-size="14" lengthAdjust="spacing" textLength="105" x="361.5" y="905.5977">Fachanwendung</text><text fill="#000000" font-family="Arial" font-size="14" lengthAdjust="spacing" textLength="42" x="711" y="115.2305">GDA 2</text><ellipse cx="735" cy="50.5986" fill="#96607D" fill-opacity="0.50196" rx="8" ry="8" style="stroke:#181818;stroke-width:0.5;"/><path d="M735,58.5986 L735,85.5986 M722,66.5986 L748,66.5986 M735,85.5986 L722,100.5986 M735,85.5986 L748,100.5986 " fill="none" style="stroke:#181818;stroke-width:0.5;"/><text fill="#000000" font-family="Arial" font-size="14" lengthAdjust="spacing" textLength="42" x="711" y="898.5977">GDA 2</text><ellipse cx="735" cy="910.0645" fill="#96607D" fill-opacity="0.50196" rx="8" ry="8" style="stroke:#181818;stroke-width:0.5;"/><path d="M735,918.0645 L735,945.0645 M722,926.0645 L748,926.0645 M735,945.0645 L722,960.0645 M735,945.0645 L748,960.0645 " fill="none" style="stroke:#181818;stroke-width:0.5;"/><rect fill="#156082" fill-opacity="0.50196" height="623.0239" style="stroke:#181818;stroke-width:1.0;" width="10" x="88" y="193.2446"/><rect fill="#E97232" fill-opacity="0.74118" height="28.9487" style="stroke:#181818;stroke-width:1.0;" width="10" x="409" y="193.2446"/><rect fill="#E97232" fill-opacity="0.74118" height="28.9487" style="stroke:#181818;stroke-width:1.0;" width="10" x="409" y="331.3394"/><rect fill="#E97232" fill-opacity="0.74118" height="121.9448" style="stroke:#181818;stroke-width:1.0;" width="10" x="409" y="469.4341"/><rect fill="#E97232" fill-opacity="0.74118" height="151.8423" style="stroke:#181818;stroke-width:1.0;" width="10" x="409" y="664.4263"/><rect fill="#96607D" fill-opacity="0.50196" height="260.0396" style="stroke:#181818;stroke-width:1.0;" width="10" x="730" y="331.3394"/><rect fill="#EEEEEE" height="3" rx="5" ry="5" style="stroke:#EEEEEE;stroke-width:1.0;" width="828" x="0" y="149.2466"/><line style="stroke:#000000;stroke-width:1.0;" x1="0" x2="828" y1="149.2466" y2="149.2466"/><line style="stroke:#000000;stroke-width:1.0;" x1="0" x2="828" y1="152.2466" y2="152.2466"/><rect fill="#EEEEEE" height="24.0986" rx="5" ry="5" style="stroke:#000000;stroke-width:2.0;" width="149" x="339.5" y="138.1973"/><text fill="#000000" font-family="Arial" font-size="14" font-weight="bold" lengthAdjust="spacing" textLength="131" x="345.5" y="155.3291">$read durch GDA 1</text><polygon fill="#111827" points="397,189.2446,407,193.2446,397,197.2446,401,193.2446" style="stroke:#111827;stroke-width:1.0;"/><line style="stroke:#111827;stroke-width:1.0;" x1="98" x2="403" y1="193.2446" y2="193.2446"/><text fill="#000000" font-family="Arial" font-size="13" font-weight="bold" lengthAdjust="spacing" textLength="7" x="105" y="188.4897">1</text><text fill="#000000" font-family="Arial" font-size="13" lengthAdjust="spacing" textLength="75" x="116" y="188.4897">POST /$read</text><polygon fill="#111827" points="109,218.1934,99,222.1934,109,226.1934,105,222.1934" style="stroke:#111827;stroke-width:1.0;"/><line style="stroke:#111827;stroke-width:1.0;" x1="103" x2="413" y1="222.1934" y2="222.1934"/><text fill="#000000" font-family="Arial" font-size="13" font-weight="bold" lengthAdjust="spacing" textLength="7" x="115" y="217.4385">2</text><text fill="#000000" font-family="Arial" font-size="13" lengthAdjust="spacing" textLength="182" x="126" y="217.4385">Collection-Bundle + ETag "123"</text><path d="M5,240.1934 L5,256.1934 A5,5 0 0 0 10,261.1934 L177,261.1934 A5,5 0 0 0 182,256.1934 L182,245.1934 L172,235.1934 L10,235.1934 A5,5 0 0 0 5,240.1934 " fill="url(#gg1afa5zuufxr0)" style="stroke:#8B95A5;stroke-width:1.0;"/><path d="M172,235.1934 L172,242.6934 A2.5,2.5 0 0 0 174.5,245.1934 L182,245.1934 L172,235.1934 " fill="url(#gg1afa5zuufxr0)" style="stroke:#8B95A5;stroke-width:1.0;"/><text fill="#111827" font-family="Arial" font-size="14" lengthAdjust="spacing" textLength="156" x="11" y="253.3252">GDA 1 bearbeitet Inhalte</text><rect fill="#EEEEEE" height="3" rx="5" ry="5" style="stroke:#EEEEEE;stroke-width:1.0;" width="828" x="0" y="287.3413"/><line style="stroke:#000000;stroke-width:1.0;" x1="0" x2="828" y1="287.3413" y2="287.3413"/><line style="stroke:#000000;stroke-width:1.0;" x1="0" x2="828" y1="290.3413" y2="290.3413"/><rect fill="#EEEEEE" height="24.0986" rx="5" ry="5" style="stroke:#000000;stroke-width:2.0;" width="143" x="342.5" y="276.292"/><text fill="#000000" font-family="Arial" font-size="14" font-weight="bold" lengthAdjust="spacing" textLength="125" x="348.5" y="293.4238">$ead durch GDA 2</text><polygon fill="#111827" points="430,327.3394,420,331.3394,430,335.3394,426,331.3394" style="stroke:#111827;stroke-width:1.0;"/><line style="stroke:#111827;stroke-width:1.0;" x1="424" x2="729" y1="331.3394" y2="331.3394"/><text fill="#000000" font-family="Arial" font-size="13" font-weight="bold" lengthAdjust="spacing" textLength="7" x="436" y="326.5845">3</text><text fill="#000000" font-family="Arial" font-size="13" lengthAdjust="spacing" textLength="75" x="447" y="326.5845">POST /$read</text><polygon fill="#111827" points="718,356.2881,728,360.2881,718,364.2881,722,360.2881" style="stroke:#111827;stroke-width:1.0;"/><line style="stroke:#111827;stroke-width:1.0;" x1="414" x2="724" y1="360.2881" y2="360.2881"/><text fill="#000000" font-family="Arial" font-size="13" font-weight="bold" lengthAdjust="spacing" textLength="7" x="421" y="355.5332">4</text><text fill="#000000" font-family="Arial" font-size="13" lengthAdjust="spacing" textLength="182" x="432" y="355.5332">Collection-Bundle + ETag "123"</text><path d="M646,378.2881 L646,394.2881 A5,5 0 0 0 651,399.2881 L818,399.2881 A5,5 0 0 0 823,394.2881 L823,383.2881 L813,373.2881 L651,373.2881 A5,5 0 0 0 646,378.2881 " fill="url(#gg1afa5zuufxr0)" style="stroke:#8B95A5;stroke-width:1.0;"/><path d="M813,373.2881 L813,380.7881 A2.5,2.5 0 0 0 815.5,383.2881 L823,383.2881 L813,373.2881 " fill="url(#gg1afa5zuufxr0)" style="stroke:#8B95A5;stroke-width:1.0;"/><text fill="#111827" font-family="Arial" font-size="14" lengthAdjust="spacing" textLength="156" x="652" y="391.4199">GDA 2 bearbeitet Inhalte</text><rect fill="#EEEEEE" height="3" rx="5" ry="5" style="stroke:#EEEEEE;stroke-width:1.0;" width="828" x="0" y="425.436"/><line style="stroke:#000000;stroke-width:1.0;" x1="0" x2="828" y1="425.436" y2="425.436"/><line style="stroke:#000000;stroke-width:1.0;" x1="0" x2="828" y1="428.436" y2="428.436"/><rect fill="#EEEEEE" height="24.0986" rx="5" ry="5" style="stroke:#000000;stroke-width:2.0;" width="152" x="338" y="414.3867"/><text fill="#000000" font-family="Arial" font-size="14" font-weight="bold" lengthAdjust="spacing" textLength="134" x="344" y="431.5186">$write durch GDA 2</text><polygon fill="#111827" points="430,465.4341,420,469.4341,430,473.4341,426,469.4341" style="stroke:#111827;stroke-width:1.0;"/><line style="stroke:#111827;stroke-width:1.0;" x1="424" x2="729" y1="469.4341" y2="469.4341"/><text fill="#000000" font-family="Arial" font-size="13" font-weight="bold" lengthAdjust="spacing" textLength="7" x="436" y="464.6792">5</text><text fill="#000000" font-family="Arial" font-size="13" lengthAdjust="spacing" textLength="281" x="447" y="464.6792">POST /$write (Transaction-Bundle + ETag "123")</text><line style="stroke:#111827;stroke-width:1.0;" x1="419" x2="461" y1="513.3315" y2="513.3315"/><line style="stroke:#111827;stroke-width:1.0;" x1="461" x2="461" y1="513.3315" y2="526.3315"/><line style="stroke:#111827;stroke-width:1.0;" x1="420" x2="461" y1="526.3315" y2="526.3315"/><polygon fill="#111827" points="430,522.3315,420,526.3315,430,530.3315,426,526.3315" style="stroke:#111827;stroke-width:1.0;"/><text fill="#000000" font-family="Arial" font-size="13" font-weight="bold" lengthAdjust="spacing" textLength="7" x="426" y="501.1023">6</text><text fill="#000000" font-family="Arial" font-size="13" lengthAdjust="spacing" textLength="148" x="437" y="493.6279">ETag "123" im Header ==</text><text fill="#000000" font-family="Arial" font-size="13" lengthAdjust="spacing" textLength="185" x="437" y="508.5767">ETag der Fachanwendung "123"</text><path d="M290,544.3315 L290,560.3315 A5,5 0 0 0 295,565.3315 L533,565.3315 A5,5 0 0 0 538,560.3315 L538,549.3315 L528,539.3315 L295,539.3315 A5,5 0 0 0 290,544.3315 " fill="url(#gg1afa5zuufxr0)" style="stroke:#8B95A5;stroke-width:1.0;"/><path d="M528,539.3315 L528,546.8315 A2.5,2.5 0 0 0 530.5,549.3315 L538,549.3315 L528,539.3315 " fill="url(#gg1afa5zuufxr0)" style="stroke:#8B95A5;stroke-width:1.0;"/><text fill="#111827" font-family="Arial" font-size="14" lengthAdjust="spacing" textLength="227" x="296" y="557.4634">Fachanwendung aktualisiert Inhalte.</text><polygon fill="#111827" points="723,587.3789,733,591.3789,723,595.3789,727,591.3789" style="stroke:#111827;stroke-width:1.0;"/><line style="stroke:#111827;stroke-width:1.0;" x1="414" x2="729" y1="591.3789" y2="591.3789"/><text fill="#000000" font-family="Arial" font-size="13" font-weight="bold" lengthAdjust="spacing" textLength="7" x="421" y="586.624">7</text><text fill="#000000" font-family="Arial" font-size="13" lengthAdjust="spacing" textLength="80" x="432" y="586.624">HTTP 200 OK</text><rect fill="#EEEEEE" height="3" rx="5" ry="5" style="stroke:#EEEEEE;stroke-width:1.0;" width="828" x="0" y="620.4282"/><line style="stroke:#000000;stroke-width:1.0;" x1="0" x2="828" y1="620.4282" y2="620.4282"/><line style="stroke:#000000;stroke-width:1.0;" x1="0" x2="828" y1="623.4282" y2="623.4282"/><rect fill="#EEEEEE" height="24.0986" rx="5" ry="5" style="stroke:#000000;stroke-width:2.0;" width="172" x="328" y="609.3789"/><text fill="#000000" font-family="Arial" font-size="14" font-weight="bold" lengthAdjust="spacing" textLength="154" x="334" y="626.5107">$write-Error f&#252;r GDA 1</text><polygon fill="#111827" points="397,660.4263,407,664.4263,397,668.4263,401,664.4263" style="stroke:#111827;stroke-width:1.0;"/><line style="stroke:#111827;stroke-width:1.0;" x1="98" x2="403" y1="664.4263" y2="664.4263"/><text fill="#000000" font-family="Arial" font-size="13" font-weight="bold" lengthAdjust="spacing" textLength="7" x="105" y="659.6714">8</text><text fill="#000000" font-family="Arial" font-size="13" lengthAdjust="spacing" textLength="281" x="116" y="659.6714">POST /$write (Transaction-Bundle + ETag "123")</text><line style="stroke:#111827;stroke-width:1.0;" x1="419" x2="461" y1="738.2212" y2="738.2212"/><line style="stroke:#111827;stroke-width:1.0;" x1="461" x2="461" y1="738.2212" y2="751.2212"/><line style="stroke:#111827;stroke-width:1.0;" x1="420" x2="461" y1="751.2212" y2="751.2212"/><polygon fill="#111827" points="430,747.2212,420,751.2212,430,755.2212,426,751.2212" style="stroke:#111827;stroke-width:1.0;"/><text fill="#000000" font-family="Arial" font-size="13" font-weight="bold" lengthAdjust="spacing" textLength="7" x="426" y="711.0432">9</text><text fill="#000000" font-family="Arial" font-size="13" lengthAdjust="spacing" textLength="204" x="437" y="688.6201">ETag im Header "123" stimmt nicht</text><text fill="#000000" font-family="Arial" font-size="13" lengthAdjust="spacing" textLength="172" x="437" y="703.5688">mit ETag der Fachanwendung</text><text fill="#000000" font-family="Arial" font-size="13" lengthAdjust="spacing" textLength="213" x="437" y="718.5176">&#252;berein, da er bereits zum Schreiben</text><text fill="#000000" font-family="Arial" font-size="13" lengthAdjust="spacing" textLength="95" x="437" y="733.4663">verwendet wurde</text><path d="M287,769.2212 L287,785.2212 A5,5 0 0 0 292,790.2212 L535,790.2212 A5,5 0 0 0 540,785.2212 L540,774.2212 L530,764.2212 L292,764.2212 A5,5 0 0 0 287,769.2212 " fill="url(#gg1afa5zuufxr0)" style="stroke:#8B95A5;stroke-width:1.0;"/><path d="M530,764.2212 L530,771.7212 A2.5,2.5 0 0 0 532.5,774.2212 L540,774.2212 L530,764.2212 " fill="url(#gg1afa5zuufxr0)" style="stroke:#8B95A5;stroke-width:1.0;"/><text fill="#111827" font-family="Arial" font-size="14" lengthAdjust="spacing" textLength="232" x="293" y="782.353">Fachanwendung lehnt Speichern ab.</text><polygon fill="#111827" points="104,812.2686,94,816.2686,104,820.2686,100,816.2686" style="stroke:#111827;stroke-width:1.0;"/><line style="stroke:#111827;stroke-width:1.0;" x1="98" x2="413" y1="816.2686" y2="816.2686"/><text fill="#000000" font-family="Arial" font-size="13" font-weight="bold" lengthAdjust="spacing" textLength="14" x="110" y="811.5137">10</text><text fill="#000000" font-family="Arial" font-size="13" lengthAdjust="spacing" textLength="97" x="128" y="811.5137">HTTP 428 Fehler</text><path d="M43,834.2686 L43,866.2686 A5,5 0 0 0 48,871.2686 L457,871.2686 A5,5 0 0 0 462,866.2686 L462,839.2686 L452,829.2686 L48,829.2686 A5,5 0 0 0 43,834.2686 " fill="url(#gg1afa5zuufxr0)" style="stroke:#8B95A5;stroke-width:1.0;"/><path d="M452,829.2686 L452,836.7686 A2.5,2.5 0 0 0 454.5,839.2686 L462,839.2686 L452,829.2686 " fill="url(#gg1afa5zuufxr0)" style="stroke:#8B95A5;stroke-width:1.0;"/><text fill="#111827" font-family="Arial" font-size="14" lengthAdjust="spacing" textLength="248" x="106.75" y="847.4004">Speichern der Inhalte wurde abgelehnt,</text><text fill="#111827" font-family="Arial" font-size="14" lengthAdjust="spacing" textLength="283" x="106.75" y="863.499">der GDA 1 muss ein neues $read ausf&#252;hren.</text><!--SRC=[hLLThzf647tthvX2fRRAfRMNorSaAa6kIQ960O6ZIjMLhXPxW1LcJTRhqAJAFyjR_bZ7QrzO6wUtKcjUx9tZcNFEZ0SjT8omYBdi_Aw4newlLA8SvuTqB-IHAtu07kf4hVH7ml4Jfia17USINISgGlKYYHC5RTTSTfI7-wrACXcLY4ql_rc8TCUZv2Ja5ZOyJj6AbAyfYGeyEsc46vx5UfP8_POV45eJ9NZSQaQin2S4xxOv-2tQhpuUKSL2xYs0xpS1tid8tE0L_Mdovu97KQwCkTNpgUrPprosfJBH27yv0DEwU-XYR-Dssf4NZR2V8-nCm_Mentldqs0dmht4D0MFpfQMcouzFtBBirXMU9utP0CwMzNwyjbccEBx36LOi5nmfKKeZbpg9c5LmDKycAiAkkxCLVYngvM0PJV0XERuL1Tb3gk-cAEcYkT0KQjBHo-9-R6YyPov25tr2pVCgBFUl9HdkQdVqJZcu_DY_cQ-V7XvDtdmWAwsr-kxGpPq6m3C04RzlZkukm8i9i5h_ssGPnZrf-ps2Z1PpC5SRNSsykzwepfWDg4OZWQiozPHBUO_BFq__4K0xJ3g3hgCZ-eAvhz19JthrLCib_Eb0VYZWTTbNPfzisAW4CzJQD4TU2tR4-TuwJCGmnmru-6EonFAA9FRrfczbOsTip4x6wEAcKvaTbYZSi0PZ-5xXJo2A5FX3anr68yTfs3K-PKgFeV5V1N0BmQObn0VE7sc1S8cUeaHpJCdkgSq1l4SQ3fY95GYErCQ5bgipy0F-1PQ7kksd0Yj58vZra7o0Kk3d8BU6hbQ8sri3Q_bZiSQ7JB2x0x72AhgOMSzx4azh6PLanvB4FjlWfXJy7jIq2d_V_fNaWhaZu7YCkNVfFNJFxOgJtV1Wg2TJqOHv_7uNff0_b0PmLAjfO-oGGt3zphZiKW5ghFGdosb5LzV1S62rfaBz5NPBfQTgVbwDgdu4uVDro_gYM7-NvswU5HubcfnE6YG8jpfUtaG6ffzkvTVlz27Y4BUGCI1mkP9f_0fEy0gtD736kMz94lpLsX2JXcjqYUSZd57ks9rHAgFIW9VD_libJxViY7CS1VJIgXPxLKhtPI7O2NFHPNTBCXHkIqQ2ZT0o0WVMt78QFMJLf2OOLek7fwbr2qIAcsErVx-3G00]--></g></svg>