<?xml version="1.0" encoding="us-ascii" standalone="no"?><svg xmlns="http://www.w3.org/2000/svg" xmlns:xlink="http://www.w3.org/1999/xlink" contentStyleType="text/css" height="711px" preserveAspectRatio="none" style="width:710px;height:711px;background:#F5F5F5;" version="1.1" viewBox="0 0 710 711" width="710px" zoomAndPan="magnify"><defs><linearGradient id="g105avjhrklxu90" x1="50%" x2="50%" y1="0%" y2="100%"><stop offset="0%" stop-color="#E0E5F0"/><stop offset="100%" stop-color="#D1D9E6"/></linearGradient></defs><g><rect fill="#F5F5F5" height="711" style="stroke:none;stroke-width:1.0;" width="710" x="0" y="0"/><text fill="#000000" font-family="Arial" font-size="14" font-weight="bold" lengthAdjust="spacing" textLength="72" x="320" y="28.1318">Plan-Write</text><rect fill="#156082" fill-opacity="0.50196" height="477.3237" style="stroke:#181818;stroke-width:1.0;" width="10" x="141" y="128.1973"/><rect fill="#E97232" fill-opacity="0.74118" height="404.1777" style="stroke:#181818;stroke-width:1.0;" width="10" x="427" y="201.3433"/><rect fill="#0F9ED5" fill-opacity="0.14510" height="340.2803" rx="5" ry="5" style="stroke:#111827;stroke-width:2.0;" width="601" x="102" y="273.2407"/><rect fill="#0F9ED5" fill-opacity="0.14510" height="188.1895" rx="5" ry="5" style="stroke:#111827;stroke-width:2.0;" width="519" x="112" y="356.3354"/><path d="M112,482.5288 L631,482.5288 L631,539.5249 A5,5 0 0 1 626,544.5249 L117,544.5249 A5,5 0 0 1 112,539.5249 L112,482.5288 " fill="#E97132" fill-opacity="0.20784" style="stroke:none;stroke-width:1.0;"/><path d="M102,551.5249 L703,551.5249 L703,608.521 A5,5 0 0 1 698,613.521 L107,613.521 A5,5 0 0 1 102,608.521 L102,551.5249 " fill="#E97132" fill-opacity="0.20784" style="stroke:none;stroke-width:1.0;"/><line style="stroke:#181818;stroke-width:0.5;stroke-dasharray:5.0,5.0;" x1="146" x2="146" y1="118.1973" y2="630.521"/><line style="stroke:#181818;stroke-width:0.5;stroke-dasharray:5.0,5.0;" x1="431.5" x2="431.5" y1="118.1973" y2="630.521"/><text fill="#000000" font-family="Arial" font-size="14" lengthAdjust="spacing" textLength="42" x="122" y="115.2305">GDA 1</text><ellipse cx="146" cy="50.5986" fill="#156082" fill-opacity="0.50196" rx="8" ry="8" style="stroke:#181818;stroke-width:0.5;"/><path d="M146,58.5986 L146,85.5986 M133,66.5986 L159,66.5986 M146,85.5986 L133,100.5986 M146,85.5986 L159,100.5986 " fill="none" style="stroke:#181818;stroke-width:0.5;"/><text fill="#000000" font-family="Arial" font-size="14" lengthAdjust="spacing" textLength="42" x="122" y="642.6528">GDA 1</text><ellipse cx="146" cy="654.1196" fill="#156082" fill-opacity="0.50196" rx="8" ry="8" style="stroke:#181818;stroke-width:0.5;"/><path d="M146,662.1196 L146,689.1196 M133,670.1196 L159,670.1196 M146,689.1196 L133,704.1196 M146,689.1196 L159,704.1196 " fill="none" style="stroke:#181818;stroke-width:0.5;"/><rect fill="#E97232" fill-opacity="0.74118" height="30.0986" rx="5" ry="5" style="stroke:#555555;stroke-width:0.5;" width="119" x="372.5" y="87.0986"/><text fill="#000000" font-family="Arial" font-size="14" lengthAdjust="spacing" textLength="105" x="379.5" y="107.2305">Fachanwendung</text><rect fill="#E97232" fill-opacity="0.74118" height="30.0986" rx="5" ry="5" style="stroke:#555555;stroke-width:0.5;" width="119" x="372.5" y="629.521"/><text fill="#000000" font-family="Arial" font-size="14" lengthAdjust="spacing" textLength="105" x="379.5" y="649.6528">Fachanwendung</text><rect fill="#156082" fill-opacity="0.50196" height="477.3237" style="stroke:#181818;stroke-width:1.0;" width="10" x="141" y="128.1973"/><rect fill="#E97232" fill-opacity="0.74118" height="404.1777" style="stroke:#181818;stroke-width:1.0;" width="10" x="427" y="201.3433"/><path d="M5,138.1973 L5,170.1973 A5,5 0 0 0 10,175.1973 L283,175.1973 A5,5 0 0 0 288,170.1973 L288,143.1973 L278,133.1973 L10,133.1973 A5,5 0 0 0 5,138.1973 " fill="url(#g105avjhrklxu90)" style="stroke:#8B95A5;stroke-width:1.0;"/><path d="M278,133.1973 L278,140.6973 A2.5,2.5 0 0 0 280.5,143.1973 L288,143.1973 L278,133.1973 " fill="url(#g105avjhrklxu90)" style="stroke:#8B95A5;stroke-width:1.0;"/><text fill="#111827" font-family="Arial" font-size="14" lengthAdjust="spacing" textLength="262" x="11" y="151.3291">Vorbedingung: Nach einem $read wurden</text><text fill="#111827" font-family="Arial" font-size="14" lengthAdjust="spacing" textLength="137" x="11" y="167.4277">die Inhalte bearbeitet.</text><polygon fill="#111827" points="415,197.3433,425,201.3433,415,205.3433,419,201.3433" style="stroke:#111827;stroke-width:1.0;"/><line style="stroke:#111827;stroke-width:1.0;" x1="151" x2="421" y1="201.3433" y2="201.3433"/><text fill="#000000" font-family="Arial" font-size="13" font-weight="bold" lengthAdjust="spacing" textLength="7" x="158" y="196.5884">1</text><text fill="#000000" font-family="Arial" font-size="13" lengthAdjust="spacing" textLength="246" x="169" y="196.5884">POST /$write (Transaction-Bundle + ETag)</text><line style="stroke:#111827;stroke-width:1.0;" x1="437" x2="479" y1="245.2407" y2="245.2407"/><line style="stroke:#111827;stroke-width:1.0;" x1="479" x2="479" y1="245.2407" y2="258.2407"/><line style="stroke:#111827;stroke-width:1.0;" x1="438" x2="479" y1="258.2407" y2="258.2407"/><polygon fill="#111827" points="448,254.2407,438,258.2407,448,262.2407,444,258.2407" style="stroke:#111827;stroke-width:1.0;"/><text fill="#000000" font-family="Arial" font-size="13" font-weight="bold" lengthAdjust="spacing" textLength="7" x="444" y="233.0115">2</text><text fill="#000000" font-family="Arial" font-size="13" lengthAdjust="spacing" textLength="113" x="455" y="225.5371">ETag im Header ==</text><text fill="#000000" font-family="Arial" font-size="13" lengthAdjust="spacing" textLength="157" x="455" y="240.4858">ETag der Fachanwendung?</text><path d="M107,273.2407 L328,273.2407 L328,281.3394 L318,291.3394 L102,291.3394 L102,278.2407 A5,5 0 0 1 107,273.2407 " fill="#EEF2FF" style="stroke:#111827;stroke-width:1.5;"/><rect fill="none" height="340.2803" rx="5" ry="5" style="stroke:#111827;stroke-width:2.0;" width="601" x="102" y="273.2407"/><text fill="#000000" font-family="Arial" font-size="14" font-weight="bold" lengthAdjust="spacing" textLength="177" x="117" y="287.3726">alt: ETag stimmt &#252;berein?</text><text fill="#000000" font-family="Arial" font-size="14" font-weight="bold" lengthAdjust="spacing" textLength="22" x="343" y="288.3726">[ja]</text><line style="stroke:#111827;stroke-width:1.0;" x1="437" x2="479" y1="328.3354" y2="328.3354"/><line style="stroke:#111827;stroke-width:1.0;" x1="479" x2="479" y1="328.3354" y2="341.3354"/><line style="stroke:#111827;stroke-width:1.0;" x1="438" x2="479" y1="341.3354" y2="341.3354"/><polygon fill="#111827" points="448,337.3354,438,341.3354,448,345.3354,444,341.3354" style="stroke:#111827;stroke-width:1.0;"/><text fill="#000000" font-family="Arial" font-size="13" font-weight="bold" lengthAdjust="spacing" textLength="7" x="444" y="316.1062">3</text><text fill="#000000" font-family="Arial" font-size="13" lengthAdjust="spacing" textLength="128" x="455" y="308.6318">Validierung der Inhalte</text><text fill="#000000" font-family="Arial" font-size="13" lengthAdjust="spacing" textLength="236" x="455" y="323.5806">(keine unzul&#228;ssigen Zustands&#252;berg&#228;nge)</text><path d="M117,356.3354 L357,356.3354 L357,364.4341 L347,374.4341 L112,374.4341 L112,361.3354 A5,5 0 0 1 117,356.3354 " fill="#EEF2FF" style="stroke:#111827;stroke-width:1.5;"/><rect fill="none" height="188.1895" rx="5" ry="5" style="stroke:#111827;stroke-width:2.0;" width="519" x="112" y="356.3354"/><text fill="#000000" font-family="Arial" font-size="14" font-weight="bold" lengthAdjust="spacing" textLength="196" x="127" y="370.4673">alt: Validierung erfolgreich?</text><text fill="#000000" font-family="Arial" font-size="14" font-weight="bold" lengthAdjust="spacing" textLength="22" x="372" y="371.4673">[ja]</text><line style="stroke:#111827;stroke-width:1.0;" x1="437" x2="479" y1="396.4814" y2="396.4814"/><line style="stroke:#111827;stroke-width:1.0;" x1="479" x2="479" y1="396.4814" y2="409.4814"/><line style="stroke:#111827;stroke-width:1.0;" x1="438" x2="479" y1="409.4814" y2="409.4814"/><polygon fill="#111827" points="448,405.4814,438,409.4814,448,413.4814,444,409.4814" style="stroke:#111827;stroke-width:1.0;"/><text fill="#000000" font-family="Arial" font-size="13" font-weight="bold" lengthAdjust="spacing" textLength="7" x="444" y="391.7266">4</text><text fill="#000000" font-family="Arial" font-size="13" lengthAdjust="spacing" textLength="149" x="455" y="391.7266">Neue Version persistieren</text><path d="M242,427.4814 L242,443.4814 A5,5 0 0 0 247,448.4814 L616,448.4814 A5,5 0 0 0 621,443.4814 L621,432.4814 L611,422.4814 L247,422.4814 A5,5 0 0 0 242,427.4814 " fill="url(#g105avjhrklxu90)" style="stroke:#8B95A5;stroke-width:1.0;"/><path d="M611,422.4814 L611,429.9814 A2.5,2.5 0 0 0 613.5,432.4814 L621,432.4814 L611,422.4814 " fill="url(#g105avjhrklxu90)" style="stroke:#8B95A5;stroke-width:1.0;"/><text fill="#111827" font-family="Arial" font-size="14" lengthAdjust="spacing" textLength="358" x="248" y="440.6133">Neue Version der Liste und aller Referenzen gespeichert</text><polygon fill="#111827" points="162,470.5288,152,474.5288,162,478.5288,158,474.5288" style="stroke:#111827;stroke-width:1.0;"/><line style="stroke:#111827;stroke-width:1.0;" x1="156" x2="426" y1="474.5288" y2="474.5288"/><text fill="#000000" font-family="Arial" font-size="13" font-weight="bold" lengthAdjust="spacing" textLength="7" x="168" y="469.7739">5</text><text fill="#000000" font-family="Arial" font-size="13" lengthAdjust="spacing" textLength="80" x="179" y="469.7739">HTTP 200 OK</text><line style="stroke:#111827;stroke-width:1.0;stroke-dasharray:2.0,2.0;" x1="112" x2="631" y1="483.5288" y2="483.5288"/><text fill="#000000" font-family="Arial" font-size="14" font-weight="bold" lengthAdjust="spacing" textLength="41" x="117" y="496.6606">[nein]</text><polygon fill="#111827" points="162,532.5249,152,536.5249,162,540.5249,158,536.5249" style="stroke:#111827;stroke-width:1.0;"/><line style="stroke:#111827;stroke-width:1.0;stroke-dasharray:2.0,2.0;" x1="156" x2="426" y1="536.5249" y2="536.5249"/><text fill="#000000" font-family="Arial" font-size="13" font-weight="bold" lengthAdjust="spacing" textLength="7" x="168" y="524.2957">6</text><text fill="#000000" font-family="Arial" font-size="13" lengthAdjust="spacing" textLength="105" x="179" y="516.8213">Fehler (HTTP 4xx)</text><text fill="#000000" font-family="Arial" font-size="13" lengthAdjust="spacing" textLength="109" x="179" y="531.77">OperationOutcome</text><line style="stroke:#111827;stroke-width:1.0;stroke-dasharray:2.0,2.0;" x1="102" x2="703" y1="552.5249" y2="552.5249"/><text fill="#000000" font-family="Arial" font-size="14" font-weight="bold" lengthAdjust="spacing" textLength="41" x="107" y="565.6567">[nein]</text><polygon fill="#111827" points="157,601.521,147,605.521,157,609.521,153,605.521" style="stroke:#111827;stroke-width:1.0;"/><line style="stroke:#111827;stroke-width:1.0;" x1="151" x2="431" y1="605.521" y2="605.521"/><text fill="#000000" font-family="Arial" font-size="13" font-weight="bold" lengthAdjust="spacing" textLength="7" x="163" y="593.2917">7</text><text fill="#000000" font-family="Arial" font-size="13" lengthAdjust="spacing" textLength="236" x="174" y="585.8174">Fehler (HTTP 428 Precondition Required)</text><text fill="#000000" font-family="Arial" font-size="13" lengthAdjust="spacing" textLength="109" x="174" y="600.7661">OperationOutcome</text><!--SRC=[TLLjRzis4FwkNt6p2op1a4sIunS5w0gxaTkYHMGuMWPq6G9QFCkSPSgbf3fDiN_Jdx5l-MCxqgv5sIxzmTBTSyyzTqTIfIWpX4d6vCMVIfJeE3yNIo7NJB4LiAJCrMtvXH1iWqM-8dVjdUMAetgTPxc2jckMxMN9CbLv9VaECU_gduKe5epd6o5JcBEiGCkp2rCI5NWsASSvgx9odCloXgqGMaCbMDOwZRWLJmZUvMddZsI__R96bGcvj01XU0hmX-Jc0O_aZ_B72UDSL-QxJVl8xbdNBBkbCYyHlZe0eyFkeOlTkNlHvXuFiASHDjDW5dHPTs-D5o9PIYmAyCWsjRhfqljtRPh5QeNdUGE_JxRRWxdyQoiiy5E5Cjcgd31LYaIicInF5TO47Eq7ivgWuyaSkRzFjU6msWqmL2hV71PbZCs-6DEfZ7l7DbU7J6z8-RfHuvvvwpgQ5yvzKvqLMQVtTLD_eksejy_hw4CqVNXpFNpmW5RRw_RSWJzmJm1y0mXwFRT_VGIO3EDtuKsi6OBUoByy0Wmd4PZLTiT1UDqD3W7Z8VamwFiTVyOFVE73DFmOJc9e9xpJx_WiEAmWUWyDUhzxI36THbC328E-r_4xjFVD5GFRuba1BNe2hsNtn5dNSmPIg55ZbYoOtA3abKnRU_KEyLLbBglL39NX5fyPdQWjlStfc9EMVyPTRkSkLpFKUuW8h-26-059-GfUA6GSDXKDK3fS8BoJ2vPHy0mPXT2LMVxga11pTXrdc-hYTr9w1PFeDeRVNcpqnGfdiMAoq9foUJ6YdKAtwYyGnYmzjwHIWVjgw7b7f54WwF8XBIJvvSjxQKpwfT6BLuwZj-6w7WbftSKNfLYjIdZ-Zvf3jRs2l_vXVplw4jZdkMEPe1eLCHdkNQttycofkm6LVAgovsz58LAKyB4gIYPvOHZJvsyonNFDTqg1pOngdcSfQKWMjGXRnWrM27Ue2ceLhFK_QIVHSWkiPqTDqeO6Nkl-G05QBQVa6RrFSQx3dqXqYiLQPqPLcjXwTBK6CyGhU1l74xfIN8ZUQo_IPTZOoP9wKeVLSMDSwAHd9lxoyV7yNaPK1TEJZweoCTzHazbnVaZQKD9az0SmKPZaaWjDITLzgeH2VYeFK3-Qvw1fqeT62_aV]--></g></svg>