<?xml version="1.0" encoding="us-ascii" standalone="no"?><svg xmlns="http://www.w3.org/2000/svg" xmlns:xlink="http://www.w3.org/1999/xlink" contentStyleType="text/css" height="473px" preserveAspectRatio="none" style="width:323px;height:473px;background:#FFFFFF;" version="1.1" viewBox="0 0 323 473" width="323px" zoomAndPan="magnify"><defs/><g><text fill="#000000" font-family="sans-serif" font-size="14" font-weight="bold" lengthAdjust="spacing" textLength="95" x="107.215" y="24.5332">List.entry.flag</text><ellipse cx="76.43" cy="54.6094" fill="#222222" rx="10" ry="10" style="stroke:#222222;stroke-width:1.0;"/><rect fill="#F1F1F1" height="35.0938" rx="12.5" ry="12.5" style="stroke:#181818;stroke-width:0.5;" width="43" x="54.93" y="133.6094"/><text fill="#000000" font-family="sans-serif" font-size="12" lengthAdjust="spacing" textLength="23" x="64.93" y="156.0664">new</text><rect fill="#F1F1F1" height="35.0938" rx="12.5" ry="12.5" style="stroke:#181818;stroke-width:0.5;" width="82" x="35.43" y="251.6094"/><text fill="#000000" font-family="sans-serif" font-size="12" lengthAdjust="spacing" textLength="62" x="45.43" y="274.0664">unchanged</text><rect fill="#F1F1F1" height="35.0938" rx="12.5" ry="12.5" style="stroke:#181818;stroke-width:0.5;" width="68" x="11.43" y="369.6094"/><text fill="#000000" font-family="sans-serif" font-size="12" lengthAdjust="spacing" textLength="48" x="21.43" y="392.0664">changed</text><rect fill="#F1F1F1" height="35.0938" rx="12.5" ry="12.5" style="stroke:#181818;stroke-width:0.5;" width="68" x="190.43" y="369.6094"/><text fill="#000000" font-family="sans-serif" font-size="12" lengthAdjust="spacing" textLength="48" x="200.43" y="392.0664">removed</text><ellipse cx="224.43" cy="456.6094" fill="none" rx="11" ry="11" style="stroke:#222222;stroke-width:1.0;"/><ellipse cx="224.43" cy="456.6094" fill="#222222" rx="6" ry="6" style="stroke:#222222;stroke-width:1.0;"/><!--link start to new--><g id="link_start_new"><path d="M76.43,64.6694 C76.43,80.4694 76.43,107.2794 76.43,127.3294 " fill="none" id="start-to-new" style="stroke:#181818;stroke-width:1.0;"/><polygon fill="#181818" points="76.43,133.3294,80.43,124.3294,76.43,128.3294,72.43,124.3294,76.43,133.3294" style="stroke:#181818;stroke-width:1.0;"/><text fill="#000000" font-family="sans-serif" font-size="11" lengthAdjust="spacing" textLength="67" x="77.43" y="97.0283">Neuen Eintrag</text><text fill="#000000" font-family="sans-serif" font-size="11" lengthAdjust="spacing" textLength="54" x="83.93" y="110.8643">hinzuf&#252;gen</text></g><!--link new to unchanged--><g id="link_new_unchanged"><path d="M76.43,168.7294 C76.43,190.7794 76.43,223.4794 76.43,245.5194 " fill="none" id="new-to-unchanged" style="stroke:#181818;stroke-width:1.0;"/><polygon fill="#181818" points="76.43,251.5194,80.43,242.5194,76.43,246.5194,72.43,242.5194,76.43,251.5194" style="stroke:#181818;stroke-width:1.0;"/><text fill="#000000" font-family="sans-serif" font-size="11" lengthAdjust="spacing" textLength="77" x="99.43" y="201.0283">Automatisch bei</text><text fill="#000000" font-family="sans-serif" font-size="11" lengthAdjust="spacing" textLength="28" x="123.93" y="214.8643">$read</text><text fill="#000000" font-family="sans-serif" font-size="11" lengthAdjust="spacing" textLength="121" x="77.43" y="228.7002">(durch Fachanwendung)</text></g><!--link changed to unchanged--><g id="link_changed_unchanged"><path d="M49.86,369.5194 C55.75,347.4794 64.5391,314.5755 70.4391,292.5255 " fill="none" id="changed-to-unchanged" style="stroke:#181818;stroke-width:1.0;"/><polygon fill="#181818" points="71.99,286.7294,65.7996,294.3896,70.6976,291.5595,73.5277,296.4574,71.99,286.7294" style="stroke:#181818;stroke-width:1.0;"/><text fill="#000000" font-family="sans-serif" font-size="11" lengthAdjust="spacing" textLength="77" x="89.43" y="319.0283">Automatisch bei</text><text fill="#000000" font-family="sans-serif" font-size="11" lengthAdjust="spacing" textLength="24" x="115.93" y="332.8643">$ead</text><text fill="#000000" font-family="sans-serif" font-size="11" lengthAdjust="spacing" textLength="121" x="67.43" y="346.7002">(durch Fachanwendung)</text></g><!--link unchanged to changed--><g id="link_unchanged_changed"><path d="M35.23,286.7694 C27.31,291.9194 20.05,298.4494 15.43,306.6094 C6,323.2294 8.98,331.6194 15.43,349.6094 C18.03,356.8694 18.8449,359.1728 23.8049,364.9328 " fill="none" id="unchanged-to-changed" style="stroke:#181818;stroke-width:1.0;"/><polygon fill="#181818" points="27.72,369.4794,24.8784,360.0494,24.4574,365.6905,18.8162,365.2695,27.72,369.4794" style="stroke:#181818;stroke-width:1.0;"/><text fill="#000000" font-family="sans-serif" font-size="11" lengthAdjust="spacing" textLength="33" x="16.93" y="326.0283">Eintrag</text><text fill="#000000" font-family="sans-serif" font-size="11" lengthAdjust="spacing" textLength="34" x="16.43" y="339.8643">&#228;ndern</text></g><!--link unchanged to removed--><g id="link_unchanged_removed"><path d="M117.59,273.7594 C142.62,277.9794 173.66,287.0694 194.43,306.6094 C212.16,323.2894 218.5073,345.5704 221.4873,363.5204 " fill="none" id="unchanged-to-removed" style="stroke:#181818;stroke-width:1.0;"/><polygon fill="#181818" points="222.47,369.4394,224.942,359.9058,221.6511,364.5069,217.05,361.216,222.47,369.4394" style="stroke:#181818;stroke-width:1.0;"/><text fill="#000000" font-family="sans-serif" font-size="11" lengthAdjust="spacing" textLength="97" x="218.43" y="326.0283">Eintrag dokumentiert</text><text fill="#000000" font-family="sans-serif" font-size="11" lengthAdjust="spacing" textLength="47" x="243.43" y="339.8643">entfernen</text></g><!--link removed to end--><g id="link_removed_end"><path d="M224.43,404.7994 C224.43,417.5994 224.43,428.8494 224.43,439.5994 " fill="none" id="removed-to-end" style="stroke:#181818;stroke-width:1.0;"/><polygon fill="#181818" points="224.43,445.5994,228.43,436.5994,224.43,440.5994,220.43,436.5994,224.43,445.5994" style="stroke:#181818;stroke-width:1.0;"/></g><!--SRC=[ZL0x3i8m3Drp2WyCBL9x12G6c10N81r2xQOHr9NIX0hEmp7OUZ5SjQeOG6Am_7llwTd1XIl1mNKX9mx-dbTNOvLArYbac6tWTAH833idIsCrruuViHfUbhW0fbv9G3O2jp6qZGckAsiuazEyycHGSuBHosXlojfmJuoHRLf0vB6tX6hElrJ-4rcgIMRnEpmPoOlNBq3yG0AsbzZ82npve5cAIcZZaPwQzYR4ESF4amUz0G00]--></g></svg>